# xmcd
#
# Track frame offsets:
#	150
#	19139
#	37984
#	66127
#	82313
#	100409
#	115930
#	134396
#	149564
#	169415
#	184855
#	201092
#	218392
#	233195
#	247841
#	265064
#	283305
#	300111
#	317698
#	334658
#
# Disc length: 4714 seconds
#
# Revision: 0
# Processed by: cddbd v1.5.1PL2 Copyright (c) Steve Scherf et al.
# Submitted via: audiograbber 1.83.01
#
DISCID=23126814
DTITLE=диажояои (BY G.Z.) - ьела йи ам еимаи о еяытас
DYEAR=2006
DGENRE=емтевмо
TTITLE0=саббопоукос - адеиа лоу ацйакиа
TTITLE1=тсатсоу - поиос еисаи есу поу ле йоитас
TTITLE2=стойас - апка амасаимы
TTITLE3=ватфгциаммгс - дем жеуцы
TTITLE4=лукымас - асе ема ьела
TTITLE5=пеяягс - паифеи о еяытас
TTITLE6=омая - хекы есема
TTITLE7=лпалпакг - лафи хеос
TTITLE8=йитяима подгката - тыяа сиыпг
TTITLE9=ватфгциаммгс - г ацапг дем жобатаи
TTITLE10=тсатсоу - хекы ма се ды
TTITLE11=омая - пета ле ьгка
TTITLE12=еустахиа and пкиатсийас - хекеи лацйиа
TTITLE13=стойас - о басикиас
TTITLE14=омая - г ацапг лпояеи
TTITLE15=пкиатсийас - ти дем елахе о хеос
TTITLE16=акоупоциаммгс - нупма мыяис
TTITLE17=пкиатсийас - хакасса
TTITLE18=омая - лг жеуцеис
TTITLE19=йитяима подгката - лпке
EXTD=Ripped By Dj Zraf
EXTT0=
EXTT1=
EXTT2=
EXTT3=
EXTT4=
EXTT5=
EXTT6=
EXTT7=
EXTT8=
EXTT9=
EXTT10=
EXTT11=
EXTT12=
EXTT13=
EXTT14=
EXTT15=
EXTT16=
EXTT17=
EXTT18=
EXTT19=
PLAYORDER=
